<svg xmlns="http://www.w3.org/2000/svg" height="24" viewBox="0 -960 960 960" width="24"><path d="M103.846-215.384v-65.847q0-27.846 14.423-47.884 14.423-20.039 38.765-32.029 52.043-24.779 103.35-39.51 51.308-14.731 123.462-14.731t123.462 14.731q51.307 14.731 103.35 39.51 24.342 11.99 38.765 32.029 14.423 20.038 14.423 47.884v65.847h-560Zm640 0v-67.693q0-34.769-14.074-65.64-14.075-30.871-39.926-52.976 29.462 6 56.769 16.654 27.308 10.654 54.001 23.962 26 13.077 40.769 33.469 14.769 20.393 14.769 44.531v67.693H743.846Zm-360-289.231q-49.5 0-84.75-35.25t-35.25-84.75q0-49.501 35.25-84.751 35.25-35.25 84.75-35.25t84.75 35.25q35.25 35.25 35.25 84.751 0 49.5-35.25 84.75t-84.75 35.25Zm290.77-120q0 49.5-35.25 84.75t-84.75 35.25q-2.539 0-6.462-.577-3.923-.577-6.462-1.269 20.325-24.895 31.239-55.235 10.915-30.34 10.915-63.015 0-32.674-11.423-62.443t-30.731-55.616q3.231-1.153 6.462-1.5 3.231-.346 6.462-.346 49.5 0 84.75 35.25t35.25 84.751Zm-530.77 369.23h480v-25.846q0-14.077-7.038-24.615-7.039-10.539-25.27-20.154-44.769-23.923-94.384-36.654-49.616-12.731-113.308-12.731-63.692 0-113.308 12.731-49.615 12.731-94.384 36.654-18.231 9.615-25.27 20.154-7.038 10.538-7.038 24.615v25.846Zm240-289.23q33 0 56.5-23.5t23.5-56.5q0-33-23.5-56.5t-56.5-23.5q-33 0-56.5 23.5t-23.5 56.5q0 33 23.5 56.5t56.5 23.5Zm0 289.23Zm0-369.23Z"/></svg>