<svg xmlns="http://www.w3.org/2000/svg" height="24" viewBox="0 -960 960 960" width="24"><path d="M480-164.615q-22.154 0-38.154-12.884-16-12.885-18.769-33.116H400q-16.077 0-28.039-11.961Q360-234.538 360-250.615v-120.462q-62.077-34.384-96.039-93.769Q230-524.231 230-590q0-104.846 72.577-177.423T480-840q104.846 0 177.423 72.577T730-590q0 66.231-33.961 125.385-33.962 59.154-96.039 93.538v120.462q0 16.077-11.961 28.039-11.962 11.961-28.039 11.961h-23.077q-2.769 20.231-18.769 33.116-16 12.884-38.154 12.884Zm-80-86h160v-39.077H400v39.077Zm0-69.846h160V-360H400v39.539ZM392-400h70.308v-124.923l-83.385-83.385L404-633.385l76 76 76-76 25.077 25.077-83.385 83.385V-400H568q54-26 88-76.5T690-590q0-88-61-149t-149-61q-88 0-149 61t-61 149q0 63 34 113.5t88 76.5Zm88-157.385ZM480-600Z"/></svg>