<svg xmlns="http://www.w3.org/2000/svg" height="24" viewBox="0 -960 960 960" width="24"><path d="M540-463.077q-33.846 0-56.923-23.077Q460-509.231 460-543.077q0-33.846 23.077-56.923 23.077-23.077 56.923-23.077 33.846 0 56.923 23.077Q620-576.923 620-543.077q0 33.846-23.077 56.923-23.077 23.077-56.923 23.077ZM292.308-335.385q-26.654 0-45.635-18.98-18.981-18.981-18.981-45.635v-286.154q0-26.654 18.981-45.635 18.981-18.981 45.635-18.981h495.385q26.653 0 45.634 18.981t18.981 45.635V-400q0 26.654-18.981 45.635-18.981 18.98-45.634 18.98H292.308Zm40-40h415.384q0-26.846 18.981-45.731Q785.654-440 812.308-440v-206.154q-26.846 0-45.731-18.981-18.885-18.98-18.885-45.634H332.308q0 26.846-18.981 45.731-18.981 18.884-45.635 18.884V-440q26.847 0 45.731 18.981 18.885 18.98 18.885 45.634Zm401.539 160.001h-561.54q-26.654 0-45.634-18.981-18.981-18.981-18.981-45.635v-352.308h40V-280q0 9.231 7.692 16.923 7.693 7.692 16.923 7.692h561.54v40.001ZM292.308-375.385h-24.616v-335.384h24.616q-10 0-17.308 7.307-7.308 7.308-7.308 17.308V-400q0 10 7.308 17.308 7.308 7.307 17.308 7.307Z"/></svg>